<svg width="218" height="75" viewBox="0 0 218 75" fill="none" xmlns="http://www.w3.org/2000/svg">
<g clip-path="url(#clip0_418_2)">
<path fill-rule="evenodd" clip-rule="evenodd" d="M67.1483 67.654L68.2082 62.6962C68.3692 61.9458 68.4497 61.3294 68.4497 60.8202C68.4497 60.3647 68.3558 59.9761 68.1546 59.6813C67.9667 59.3731 67.685 59.1587 67.3093 59.0247C66.9471 58.8907 66.5714 58.7969 66.2092 58.7433C65.847 58.6897 65.4042 58.6629 64.881 58.6629C63.5662 58.6629 62.4393 58.8237 61.4867 59.1319C61.1513 59.2525 60.9903 59.4133 60.9903 59.6545C60.9903 59.7617 61.044 60.0163 61.1379 60.4585C61.1915 60.6594 61.2989 60.7666 61.4599 60.7666C61.5404 60.7666 61.8087 60.713 62.238 60.6192C62.9759 60.4585 63.7406 60.3781 64.5322 60.3781C65.7933 60.3781 66.4373 60.7398 66.4373 61.4768C66.4373 61.852 66.3836 62.254 66.2897 62.6828L66.1421 63.3125C65.2432 63.2455 64.5322 63.2053 64.0089 63.2053C62.4258 63.2053 61.2855 63.3929 60.6012 63.7681C59.3938 64.3845 58.79 65.5369 58.79 67.2252C58.79 68.0024 59.0449 68.6455 59.5548 69.1413C60.0646 69.6505 60.9366 69.8917 62.1575 69.8917C63.7272 69.8917 64.9883 69.6907 65.9543 69.2887C66.3165 69.1413 66.5714 68.9671 66.7324 68.7661C66.9337 68.5115 67.0813 68.1364 67.1618 67.6674L67.1483 67.654ZM65.8738 64.7865L65.4042 66.8098C65.3372 67.1582 65.2432 67.4262 65.1225 67.6138C65.0017 67.8014 64.8542 67.9354 64.6529 68.0024C64.1163 68.2302 63.4186 68.3507 62.56 68.3507C61.2989 68.3507 60.6549 67.8416 60.6549 66.8232C60.6549 66.0058 60.95 65.4297 61.5404 65.0947C62.0099 64.8267 62.8149 64.6793 63.9419 64.6793C64.7066 64.6793 65.3506 64.7195 65.8872 64.7865H65.8738ZM81.6647 69.3155L81.5573 69.7443C81.3427 70.5617 81.1012 71.1512 80.8463 71.4862C80.4975 71.9552 79.9742 72.317 79.2766 72.5582C78.5655 72.7994 77.4117 72.9334 75.775 72.9736C75.4127 72.987 75.2115 73.1344 75.1712 73.4023C75.1444 73.6569 75.131 73.9383 75.131 74.2197C75.131 74.5011 75.3188 74.6351 75.7079 74.6351C77.6532 74.6351 79.1961 74.4207 80.3365 73.9785C81.4769 73.5363 82.3087 72.8128 82.8051 71.8078C83.1673 71.0842 83.4625 70.1329 83.7174 68.9403L85.5285 60.3111C85.5822 59.9627 85.609 59.7617 85.609 59.7081C85.609 59.4535 85.4346 59.2525 85.0858 59.1319C84.2272 58.8103 83.0734 58.6629 81.6513 58.6629C79.8401 58.6629 78.4448 59.1319 77.4654 60.0699C76.7409 60.78 76.1909 61.6912 75.8152 62.8302C75.4396 63.9691 75.2383 65.0679 75.2383 66.1532C75.2383 68.6321 76.4592 69.8649 78.8875 69.8649C80.0681 69.8649 80.9939 69.6907 81.6513 69.3289L81.6647 69.3155ZM82.2013 67.0108C82.1611 67.185 82.094 67.3458 82.0269 67.4798C81.9196 67.6406 81.7586 67.7612 81.5305 67.8684C80.9805 68.1096 80.2962 68.2301 79.451 68.2301C77.9618 68.2301 77.2239 67.453 77.2239 65.8852C77.2239 65.0277 77.3581 64.1701 77.6398 63.3125C77.9216 62.455 78.2838 61.785 78.7265 61.3026C79.3034 60.646 80.1889 60.3111 81.3829 60.3111C82.1342 60.3111 82.7246 60.3915 83.1539 60.5522C83.3551 60.6192 83.4624 60.7532 83.4624 60.9408C83.4624 60.981 83.449 61.0748 83.4222 61.2222L82.1879 67.0242L82.2013 67.0108ZM94.0478 64.7865H100.394C100.635 64.7865 100.81 64.7463 100.917 64.6525C101.051 64.5453 101.158 64.3309 101.239 64.0093C101.44 63.1919 101.548 62.3612 101.548 61.5036C101.548 60.5925 101.293 59.8957 100.769 59.3999C100.246 58.9041 99.3741 58.6495 98.1532 58.6495C96.4493 58.6495 95.1345 59.1185 94.182 60.0565C93.4307 60.7934 92.8806 61.7046 92.5184 62.8168C92.1562 63.9289 91.9817 65.0411 91.9817 66.18C91.9817 67.319 92.3171 68.2703 93.0014 68.9135C93.6856 69.5567 94.7052 69.8783 96.0737 69.8783C97.5361 69.8783 98.7435 69.7041 99.6558 69.3423C99.9644 69.2217 100.112 69.0609 100.112 68.8465C100.112 68.6991 100.045 68.4311 99.9241 68.0426C99.8839 67.8684 99.7766 67.788 99.6156 67.788C99.5887 67.788 99.3741 67.8282 98.985 67.922C98.1666 68.1364 97.3616 68.2436 96.5701 68.2436C95.698 68.2436 95.0272 68.0694 94.5979 67.7344C94.1552 67.3994 93.9405 66.8232 93.9405 66.0192C93.9405 65.6709 93.9808 65.2689 94.0478 64.7865ZM94.3698 63.2589C94.6381 62.2808 95.0004 61.5706 95.4297 61.1284C96.02 60.5388 96.825 60.2441 97.8312 60.2441C98.5423 60.2441 99.0253 60.3647 99.307 60.6058C99.5887 60.847 99.7229 61.2222 99.7229 61.7314C99.7229 62.321 99.6558 62.8302 99.5351 63.2589H94.3698ZM96.2615 57.2158C96.4896 57.2158 96.7311 57.0818 96.9994 56.8272L98.8777 54.9111L100.005 56.8272C100.152 57.0818 100.367 57.2158 100.649 57.2158C100.863 57.2158 101.091 57.2024 101.319 57.1756C101.561 57.122 101.682 57.0014 101.682 56.8272C101.682 56.7066 101.641 56.586 101.574 56.4386L100.219 53.7453C100.058 53.4371 99.8436 53.2897 99.5753 53.2897H98.7167C98.4349 53.2897 98.1398 53.4505 97.858 53.7587L95.4834 56.3716C95.309 56.5458 95.2285 56.7066 95.2285 56.8406C95.2285 57.0282 95.3358 57.1354 95.537 57.1622C95.7651 57.189 96.02 57.2024 96.2883 57.2024L96.2615 57.2158ZM109.624 69.1413L111.221 61.7046C111.288 61.383 111.382 61.182 111.475 61.0748C111.556 61.0078 111.717 60.914 111.945 60.7934C112.723 60.4719 113.555 60.3245 114.427 60.3245C115.554 60.3245 116.118 60.6728 116.118 61.383C116.118 61.5974 116.064 61.9994 115.943 62.5756L114.588 68.9001C114.548 69.1145 114.521 69.2619 114.521 69.3289C114.521 69.5433 114.655 69.6505 114.91 69.6505H115.943C116.211 69.6505 116.386 69.4897 116.466 69.1547L117.915 62.388C118.063 61.7582 118.13 61.1418 118.13 60.5522C118.13 59.8823 117.848 59.3865 117.298 59.0917C116.748 58.7969 116.064 58.6495 115.259 58.6495C113.354 58.6495 111.757 58.9577 110.442 59.5607C109.919 59.7885 109.597 60.2173 109.45 60.8604L107.746 68.9269C107.706 69.1011 107.679 69.2351 107.679 69.3423C107.679 69.5567 107.813 69.6639 108.068 69.6639H109.101C109.369 69.6639 109.544 69.5031 109.624 69.1681V69.1413ZM126.918 65.8048C126.918 65.0009 127.038 64.1835 127.266 63.3527C127.494 62.522 127.843 61.852 128.299 61.3696C128.943 60.6996 129.802 60.3513 130.875 60.3513C131.519 60.3513 132.083 60.4049 132.566 60.4987C132.888 60.5657 133.089 60.6058 133.196 60.6058C133.384 60.6058 133.518 60.5255 133.585 60.3513C133.773 59.9091 133.867 59.5741 133.867 59.3597C133.867 59.1587 133.76 59.0247 133.545 58.9443C132.941 58.7567 132.136 58.6629 131.144 58.6629C129.4 58.6629 128.071 59.1185 127.146 60.0163C126.394 60.7532 125.831 61.6912 125.455 62.8302C125.08 63.9691 124.892 65.0947 124.892 66.2068C124.892 67.4128 125.241 68.3239 125.925 68.9403C126.609 69.5567 127.562 69.8649 128.769 69.8649C129.976 69.8649 131.023 69.7309 131.855 69.4763C132.177 69.3691 132.324 69.2351 132.324 69.0475C132.324 68.8867 132.271 68.6053 132.15 68.19C132.11 67.989 132.002 67.8818 131.828 67.8818C131.774 67.8818 131.667 67.8952 131.519 67.9354C131.372 67.9756 131.278 68.0024 131.238 68.0158C130.58 68.1632 129.909 68.2301 129.252 68.2301C127.682 68.2301 126.904 67.4128 126.904 65.7914L126.918 65.8048ZM141.286 69.1413L143.312 59.6545C143.352 59.4401 143.379 59.3061 143.379 59.2391C143.379 59.0113 143.258 58.8907 143.017 58.8907H141.984C141.702 58.8907 141.514 59.0515 141.447 59.3865L139.395 68.9001C139.368 69.0743 139.354 69.2083 139.354 69.2887C139.354 69.5165 139.475 69.6371 139.717 69.6371H140.75C141.031 69.6371 141.219 69.4763 141.286 69.1413ZM144.292 55.0451C144.292 54.4555 143.956 54.1607 143.299 54.1607C142.91 54.1607 142.601 54.2813 142.373 54.5091C142.105 54.7771 141.957 55.1657 141.957 55.6748C141.957 56.2644 142.293 56.5592 142.977 56.5592C143.339 56.5592 143.634 56.4654 143.862 56.2644C144.144 55.9964 144.292 55.5944 144.292 55.0585V55.0451ZM157.936 67.654L158.996 62.6962C159.157 61.9458 159.237 61.3294 159.237 60.8202C159.237 60.3647 159.143 59.9761 158.942 59.6813C158.754 59.3731 158.472 59.1587 158.097 59.0247C157.735 58.8907 157.359 58.7969 156.997 58.7433C156.634 58.6897 156.192 58.6629 155.668 58.6629C154.354 58.6629 153.227 58.8237 152.274 59.1319C151.939 59.2525 151.778 59.4133 151.778 59.6545C151.778 59.7617 151.831 60.0163 151.925 60.4585C151.979 60.6594 152.086 60.7666 152.247 60.7666C152.328 60.7666 152.596 60.713 153.025 60.6192C153.763 60.4585 154.528 60.3781 155.32 60.3781C156.581 60.3781 157.225 60.7398 157.225 61.4768C157.225 61.852 157.171 62.254 157.077 62.6828L156.93 63.3125C156.031 63.2455 155.32 63.2053 154.796 63.2053C153.213 63.2053 152.073 63.3929 151.389 63.7681C150.181 64.3845 149.578 65.5369 149.578 67.2252C149.578 68.0024 149.832 68.6455 150.342 69.1413C150.852 69.6505 151.724 69.8917 152.945 69.8917C154.515 69.8917 155.776 69.6907 156.742 69.2887C157.104 69.1413 157.359 68.9671 157.52 68.7661C157.721 68.5115 157.869 68.1364 157.949 67.6674L157.936 67.654ZM156.661 64.7865L156.192 66.8098C156.125 67.1582 156.031 67.4262 155.91 67.6138C155.789 67.8014 155.642 67.9354 155.44 68.0024C154.904 68.2302 154.206 68.3507 153.347 68.3507C152.086 68.3507 151.442 67.8416 151.442 66.8232C151.442 66.0058 151.738 65.4297 152.328 65.0947C152.797 64.8267 153.602 64.6793 154.729 64.6793C155.494 64.6793 156.138 64.7195 156.675 64.7865H156.661Z" fill="#324C9A"/>
<path fill-rule="evenodd" clip-rule="evenodd" d="M25.5847 44.9954C26.8995 44.9954 27.7179 44.4059 28.013 43.2133C28.9119 39.5553 29.3547 37.2237 29.3547 36.2054C29.3547 35.2674 28.7107 34.7984 27.4361 34.7984H15.4421C14.1273 34.7984 13.4699 34.3161 13.4699 33.3379C13.4699 32.9091 13.5772 32.1721 13.7919 31.1136L19.5877 3.69826L19.9767 1.59454C19.9767 0.535979 19.3596 0 18.1253 0H10.3439C8.89495 0 7.98264 0.870966 7.59357 2.6129L0.321989 36.6476C0.10733 37.6257 0 38.6173 0 39.6491C0 41.4714 0.536648 42.8247 1.62336 43.6957C2.71007 44.5667 4.41393 45.0088 6.76177 45.0088H25.5847V44.9954ZM65.5382 23.0069C65.5382 20.7156 65.1625 18.8129 64.4246 17.2987C63.6867 15.7846 62.5866 14.6858 61.1377 13.9891C59.6887 13.2923 58.1995 12.8233 56.6701 12.5821C55.1406 12.3543 53.2489 12.2337 50.995 12.2337C45.8432 12.2337 41.7781 13.6943 38.7997 16.6288C36.6263 18.7995 35.0566 21.4928 34.0772 24.722C33.0978 27.9513 32.6148 31.2208 32.6148 34.5439C32.6148 36.8754 32.9636 38.8183 33.6613 40.3458C34.3589 41.8734 35.4188 43.0257 36.8141 43.7895C38.2228 44.5533 39.6986 45.0892 41.2548 45.384C42.8111 45.6788 44.6626 45.8262 46.836 45.8262C49.8144 45.8262 52.3098 45.4778 54.3356 44.781C56.3615 44.0843 58.1056 42.9185 59.5948 41.3106C61.5536 39.1801 63.0294 36.3662 64.0356 32.8287C65.0418 29.3047 65.5382 26.0352 65.5382 23.0069ZM53.4099 24.5344C53.4099 25.8476 53.155 27.7369 52.6452 30.1756C52.1354 32.6143 51.5182 34.2893 50.7938 35.1736C49.9888 36.1518 48.9692 36.6342 47.7349 36.6342C46.6347 36.6342 45.8566 36.4064 45.4005 35.9374C44.9577 35.4684 44.7296 34.6242 44.7296 33.3915C44.7296 32.1587 44.9577 30.4034 45.4005 28.2595C45.8432 26.1156 46.4067 24.4942 47.0909 23.3821C47.8556 22.1493 48.9692 21.533 50.4047 21.533C51.5585 21.533 52.3366 21.7474 52.766 22.1761C53.1953 22.6049 53.4099 23.3821 53.4099 24.5344ZM83.2878 33.1503C83.0732 29.1573 82.6707 23.2079 82.0804 15.3022C81.9462 13.7345 81.1815 12.9439 79.7862 12.9439C77.1969 12.9439 74.6746 13.0913 72.2597 13.3861C71.6157 13.4263 71.1327 13.6809 70.7973 14.1498C70.4619 14.6188 70.2875 15.1682 70.2875 15.8114C70.2875 16.2 70.3278 16.6422 70.4083 17.1513L73.2793 39.5285C73.5342 41.6054 74.1111 43.0927 74.9966 43.9637C75.8955 44.8347 77.492 45.2768 79.7862 45.2768H82.2145C84.388 45.2768 86.065 44.848 87.259 44.0039C88.4531 43.1597 89.6471 41.6858 90.8277 39.6089L103.721 17.4327C104.271 16.4948 104.553 15.6908 104.553 15.0074C104.553 14.0695 104.002 13.5469 102.889 13.4129C100.554 13.1181 97.992 12.9707 95.2283 12.9707C93.9537 12.9707 92.9475 13.6675 92.223 15.0744C88.7348 21.667 85.7564 27.6967 83.2878 33.1771V33.1503ZM132.297 39.3945C131.908 41.056 131.358 42.2218 130.634 42.9051C129.909 43.5483 128.916 44.0575 127.628 44.4327C124.221 45.3706 119.968 45.8396 114.87 45.8396C110.442 45.8396 107.397 45.0892 105.747 43.5751C104.083 42.061 103.251 40.0778 103.251 37.6123C103.251 32.7617 104.955 29.2645 108.363 27.0937C110.496 25.7404 114.091 25.057 119.149 25.057C120.424 25.057 121.9 25.124 123.55 25.2446L123.684 24.6014C123.765 24.1727 123.805 23.7975 123.805 23.4491C123.805 22.3503 122.678 21.7875 120.424 21.7875C118.505 21.7875 116.573 21.9215 114.615 22.1761C113.085 22.4307 112.079 22.5647 111.609 22.5647C110.711 22.5647 110.16 22.0153 109.946 20.9032C109.651 19.1211 109.503 17.6069 109.503 16.3742C109.503 15.061 110.308 14.1364 111.931 13.6273C114.91 12.6893 118.72 12.2203 123.349 12.2203C125.388 12.2203 127.065 12.3007 128.353 12.4481C129.654 12.5955 130.942 12.8903 132.244 13.3459C133.545 13.7881 134.497 14.4982 135.115 15.4764C135.732 16.4546 136.04 17.7141 136.04 19.2416C136.04 20.9434 135.853 22.7255 135.463 24.6014L132.27 39.3945H132.297ZM122.02 32.3195C121.256 32.2391 120.343 32.1855 119.27 32.1855C117.606 32.1855 116.466 32.3999 115.822 32.8287C115.017 33.3781 114.615 34.2357 114.615 35.3746C114.615 36.8218 115.514 37.5453 117.298 37.5453C118.653 37.5453 119.659 37.3577 120.303 36.9692C120.732 36.7146 121.001 36.393 121.135 36.0178C121.215 35.7632 121.43 34.919 121.779 33.4719L122.034 32.3195H122.02ZM156.218 22.3771H160.364C161.853 22.3771 162.765 21.7608 163.114 20.528C163.839 17.9419 164.201 16.066 164.201 14.9136C164.201 13.7613 163.436 13.1315 161.907 13.1315H158.204L159.224 8.48187C159.478 7.20892 159.613 6.31115 159.613 5.80197C159.613 4.78361 158.969 4.27443 157.694 4.27443H150.932C149.658 4.27443 148.759 5.065 148.249 6.63274C147.605 8.92405 147.055 11.0948 146.586 13.1315H143.714C142.306 13.1315 141.42 13.8551 141.031 15.3022C140.307 18.1965 139.944 20.0456 139.944 20.8496C139.944 21.8679 140.521 22.3771 141.662 22.3771H144.345L142.748 29.9612C142.024 33.3647 141.662 35.9508 141.662 37.7329C141.662 39.3007 142.011 40.6272 142.708 41.6858C143.406 42.7443 144.479 43.5349 145.901 44.0441C147.323 44.5533 148.813 44.915 150.369 45.1294C151.925 45.3438 153.83 45.451 156.084 45.451C157.533 45.451 158.445 44.7275 158.835 43.2803C159.478 41.3642 159.787 39.7696 159.787 38.4967C159.787 37.2237 159.21 36.527 158.07 36.393C156.285 36.1786 155.172 35.857 154.756 35.4416C154.286 34.9726 154.058 34.3563 154.058 33.5925C154.058 33.0431 154.166 32.1855 154.38 31.0466L156.232 22.3771H156.218ZM176.074 32.5071C176.074 32.6277 176.074 32.8153 176.047 33.0431C176.021 33.2709 176.021 33.4317 176.021 33.5255C176.021 34.7582 176.41 35.589 177.201 36.0044C177.993 36.4332 179.227 36.6476 180.931 36.6476C183.319 36.6476 185.358 36.4734 187.062 36.1384C187.143 36.1384 187.344 36.0982 187.666 36.0044C187.988 35.924 188.31 35.857 188.618 35.8168C188.94 35.7766 189.209 35.7498 189.41 35.7498C190.215 35.7498 190.725 36.192 190.939 37.0898C191.449 39.0461 191.704 40.6138 191.704 41.8064C191.704 42.8247 191.221 43.5751 190.242 44.0307C187.814 45.2232 183.601 45.8128 177.604 45.8128C168.628 45.8128 164.134 41.994 164.134 34.3429C164.134 31.0332 164.778 27.6565 166.052 24.2129C167.327 20.7692 169.205 18.0089 171.674 15.932C174.612 13.4665 178.717 12.2337 183.99 12.2337C188.243 12.2337 191.275 13.0109 193.086 14.5652C194.897 16.1196 195.796 18.3305 195.796 21.2248C195.796 24.1191 195.367 27.0267 194.522 29.8272C194.092 31.06 193.623 31.8238 193.113 32.1185C192.684 32.3731 192.134 32.5071 191.449 32.5071H176.074ZM177.725 24.99H184.486C184.781 24.3067 184.929 23.4625 184.929 22.4441C184.929 21.6402 184.755 21.0372 184.419 20.662C184.084 20.2734 183.413 20.0858 182.447 20.0858C181.387 20.0858 180.475 20.4074 179.697 21.0372C178.851 21.7608 178.181 23.0739 177.725 24.99ZM217.812 3.40347C217.946 2.5057 218 1.98312 218 1.80893C218 0.710172 217.302 0.147394 215.894 0.147394H208.81C207.361 0.147394 206.422 1.08536 206.006 2.94789L199.311 34.3697C198.989 35.9374 198.788 37.3577 198.707 38.6173L212.312 29.1841L217.812 3.40347Z" fill="#324C9A"/>
<path fill-rule="evenodd" clip-rule="evenodd" d="M193.891 46.9786L213.479 33.3915C214.794 32.5072 216.336 32.6412 215.947 34.7181C215.25 38.6575 214.552 42.597 213.854 46.5498C213.506 48.064 212.647 48.9215 211.01 48.9885L194.87 49.2699C192.965 49.3905 192.268 48.1041 193.891 46.992V46.9786Z" fill="#324C9A"/>
</g>
<defs>
<clipPath id="clip0_418_2">
<rect width="218" height="74.6485" fill="white"/>
</clipPath>
</defs>
</svg>
