<svg width="21" height="21" viewBox="0 0 21 21" fill="none" xmlns="http://www.w3.org/2000/svg">
<g clip-path="url(#clip0_7_420)">
<g clip-path="url(#clip1_7_420)">
<path d="M20.825 8.68C19.985 3.745 15.68 0 10.5 0C5.31999 0 1.01499 3.745 0.174988 8.68L10.5 3.5L20.825 8.68ZM0.174988 12.32C1.01499 17.255 5.31999 21 10.5 21C15.68 21 19.985 17.255 20.825 12.32L10.5 17.5L0.174988 12.32Z" fill="#699635"/>
<path d="M10.5 3.5L0.175 8.68C0.07 9.275 0 9.87 0 10.5C0 11.13 0.07 11.725 0.175 12.32L10.5 17.5L20.825 12.32C20.93 11.725 21 11.13 21 10.5C21 9.87 20.93 9.275 20.825 8.68L10.5 3.5Z" fill="#FFE62E"/>
<path d="M8.4 9.23999C7.28 9.23999 6.23 9.48499 5.285 9.90499C5.25 10.115 5.25 10.29 5.25 10.5C5.25 13.405 7.595 15.75 10.5 15.75C12.46 15.75 14.175 14.665 15.085 13.09C13.79 10.815 11.27 9.23999 8.4 9.23999Z" fill="#428BC1"/>
<path d="M15.68 11.34C15.715 11.06 15.75 10.78 15.75 10.5C15.75 7.595 13.405 5.25 10.5 5.25C8.43499 5.25 6.64999 6.44 5.77499 8.19C6.61499 7.945 7.48999 7.805 8.39999 7.805C11.375 7.805 14 9.205 15.68 11.34Z" fill="#428BC1"/>
<path d="M8.4 7.80493C7.49 7.80493 6.615 7.94493 5.775 8.18993C5.53 8.71493 5.355 9.27493 5.285 9.90493C6.23 9.48493 7.28 9.23993 8.4 9.23993C11.27 9.23993 13.79 10.7799 15.085 13.0549C15.4 12.5299 15.575 11.9349 15.68 11.3399C14 9.20493 11.375 7.80493 8.4 7.80493Z" fill="white"/>
<path d="M6.99999 10.8499C7.19329 10.8499 7.34999 10.6932 7.34999 10.4999C7.34999 10.3066 7.19329 10.1499 6.99999 10.1499C6.80669 10.1499 6.64999 10.3066 6.64999 10.4999C6.64999 10.6932 6.80669 10.8499 6.99999 10.8499Z" fill="white"/>
<path d="M8.39999 12.95C8.59329 12.95 8.74999 12.7933 8.74999 12.6C8.74999 12.4067 8.59329 12.25 8.39999 12.25C8.20669 12.25 8.04999 12.4067 8.04999 12.6C8.04999 12.7933 8.20669 12.95 8.39999 12.95Z" fill="white"/>
<path d="M10.5 12.95C10.6933 12.95 10.85 12.7933 10.85 12.6C10.85 12.4067 10.6933 12.25 10.5 12.25C10.3067 12.25 10.15 12.4067 10.15 12.6C10.15 12.7933 10.3067 12.95 10.5 12.95Z" fill="white"/>
<path d="M10.5 14.3499C10.6933 14.3499 10.85 14.1932 10.85 13.9999C10.85 13.8066 10.6933 13.6499 10.5 13.6499C10.3067 13.6499 10.15 13.8066 10.15 13.9999C10.15 14.1932 10.3067 14.3499 10.5 14.3499Z" fill="white"/>
<path d="M13.3 12.95C13.4933 12.95 13.65 12.7933 13.65 12.6C13.65 12.4067 13.4933 12.25 13.3 12.25C13.1067 12.25 12.95 12.4067 12.95 12.6C12.95 12.7933 13.1067 12.95 13.3 12.95Z" fill="white"/>
<path d="M13.3 14.3499C13.4933 14.3499 13.65 14.1932 13.65 13.9999C13.65 13.8066 13.4933 13.6499 13.3 13.6499C13.1067 13.6499 12.95 13.8066 12.95 13.9999C12.95 14.1932 13.1067 14.3499 13.3 14.3499Z" fill="white"/>
<path d="M11.9 13.65C12.0933 13.65 12.25 13.4933 12.25 13.3C12.25 13.1067 12.0933 12.95 11.9 12.95C11.7067 12.95 11.55 13.1067 11.55 13.3C11.55 13.4933 11.7067 13.65 11.9 13.65Z" fill="white"/>
<path d="M6.99999 12.25C7.19329 12.25 7.34999 12.0933 7.34999 11.9C7.34999 11.7067 7.19329 11.55 6.99999 11.55C6.80669 11.55 6.64999 11.7067 6.64999 11.9C6.64999 12.0933 6.80669 12.25 6.99999 12.25Z" fill="white"/>
</g>
</g>
<defs>
<clipPath id="clip0_7_420">
<rect width="21" height="21" fill="white"/>
</clipPath>
<clipPath id="clip1_7_420">
<rect width="21" height="21" fill="white"/>
</clipPath>
</defs>
</svg>
