<svg width="42" height="42" viewBox="0 0 42 42" fill="none" xmlns="http://www.w3.org/2000/svg">
<g id="lets-icons:time-fill">
<path id="Vector" fill-rule="evenodd" clip-rule="evenodd" d="M21 36.75C23.0683 36.75 25.1164 36.3426 27.0273 35.5511C28.9381 34.7596 30.6744 33.5995 32.1369 32.1369C33.5995 30.6744 34.7596 28.9381 35.5511 27.0273C36.3426 25.1164 36.75 23.0683 36.75 21C36.75 18.9317 36.3426 16.8836 35.5511 14.9727C34.7596 13.0619 33.5995 11.3256 32.1369 9.86307C30.6744 8.40055 28.9381 7.24041 27.0273 6.4489C25.1164 5.65739 23.0683 5.25 21 5.25C16.8228 5.25 12.8168 6.90937 9.86307 9.86307C6.90937 12.8168 5.25 16.8228 5.25 21C5.25 25.1772 6.90937 29.1832 9.86307 32.1369C12.8168 35.0906 16.8228 36.75 21 36.75ZM22.75 11.375C22.75 10.9109 22.5656 10.4658 22.2374 10.1376C21.9092 9.80937 21.4641 9.625 21 9.625C20.5359 9.625 20.0908 9.80937 19.7626 10.1376C19.4344 10.4658 19.25 10.9109 19.25 11.375V20.5625C19.25 21.77 20.23 22.75 21.4375 22.75H27.125C27.5891 22.75 28.0343 22.5656 28.3624 22.2374C28.6906 21.9092 28.875 21.4641 28.875 21C28.875 20.5359 28.6906 20.0908 28.3624 19.7626C28.0343 19.4344 27.5891 19.25 27.125 19.25H22.75V11.375Z" fill="#FF4917"/>
</g>
</svg>
