<svg width="42" height="42" viewBox="0 0 42 42" fill="none" xmlns="http://www.w3.org/2000/svg">
<g id="mage:email-fill">
<path id="Vector" d="M30.1875 4.8125H11.8125C9.60789 4.8125 7.49357 5.68828 5.93467 7.24718C4.37578 8.80607 3.5 10.9204 3.5 13.125V28.875C3.5 29.9666 3.71501 31.0475 4.13275 32.0561C4.55049 33.0646 5.16279 33.9809 5.93467 34.7528C7.49357 36.3117 9.60789 37.1875 11.8125 37.1875H30.1875C32.3907 37.1829 34.5023 36.3056 36.0602 34.7477C37.6181 33.1898 38.4954 31.0782 38.5 28.875V13.125C38.4954 10.9218 37.6181 8.81018 36.0602 7.25228C34.5023 5.69439 32.3907 4.81712 30.1875 4.8125ZM23.8 19.3725C22.939 19.8635 21.9649 20.1218 20.9737 20.1218C19.9826 20.1218 19.0085 19.8635 18.1475 19.3725L6.16 12.495C6.315 11.1043 6.97726 9.81951 8.0201 8.88644C9.06295 7.95337 10.4132 7.4375 11.8125 7.4375H30.1875C31.5857 7.44133 32.9339 7.95853 33.9759 8.89088C35.018 9.82322 35.6813 11.1058 35.84 12.495L23.8 19.3725Z" fill="#FF4917"/>
</g>
</svg>
