<svg width="21" height="21" viewBox="0 0 21 21" fill="none" xmlns="http://www.w3.org/2000/svg">
<g clip-path="url(#clip0_7_439)">
<g clip-path="url(#clip1_7_439)">
<path d="M0 10.4999C0 12.5649 0.595 14.4899 1.61 16.0999H19.355C20.37 14.4899 20.965 12.5649 20.965 10.4999C20.965 8.4349 20.37 6.5099 19.355 4.8999H1.61C0.595 6.5099 0 8.4349 0 10.4999Z" fill="#FFCE31"/>
<path d="M19.39 4.9C17.535 1.96 14.245 0 10.5 0C6.75505 0 3.46505 1.96 1.61005 4.9H19.39ZM1.61005 16.1C3.46505 19.04 6.75505 21 10.5 21C14.245 21 17.535 19.04 19.39 16.1H1.61005Z" fill="#ED4C5C"/>
<path d="M2.51996 9.34497H3.63996V9.97497H2.51996V9.34497ZM2.51996 13.965H3.67496V14.56H2.51996V13.965Z" fill="#C8B100"/>
<path d="M2.41528 12.9849C2.31011 13.055 2.23999 13.1251 2.23999 13.1602C2.23999 13.1952 2.27505 13.2303 2.34517 13.2653C2.41528 13.3004 2.4854 13.3705 2.45034 13.4406C2.52046 13.3705 2.55552 13.3004 2.55552 13.2303C2.55552 13.1251 2.4854 13.0199 2.41528 12.9849Z" fill="#ED4C5C"/>
<path d="M2.69495 9.9751H3.49995V13.9651H2.69495V9.9751Z" fill="white"/>
<path d="M4.34006 11.4451C4.16506 11.3751 3.85006 11.3051 3.50006 11.3051C3.39506 11.3051 3.25506 11.3051 3.11506 11.3401C2.62506 11.4101 2.24006 11.6201 2.27506 11.7601L2.10006 11.3751C2.06506 11.2001 2.48506 10.9901 3.01006 10.8851C3.18506 10.8501 3.36006 10.8501 3.50006 10.8501C3.85006 10.8501 4.16506 10.8851 4.34006 10.9551V11.4451Z" fill="#ED4C5C"/>
<path d="M2.69506 11.97C2.48506 11.97 2.31006 11.9 2.31006 11.795C2.31006 11.725 2.38006 11.62 2.52006 11.55H2.73006L2.69506 11.97ZM3.50006 11.655C3.64006 11.69 3.74506 11.725 3.81506 11.76C3.85006 11.795 3.71006 11.935 3.50006 12.04V11.655Z" fill="#ED4C5C"/>
<path d="M2.17002 12.74C2.13502 12.67 2.38002 12.53 2.69502 12.425C2.83502 12.39 2.94002 12.32 3.11502 12.25C3.53502 12.075 3.88502 11.83 3.81502 11.76L3.88502 12.18C3.92002 12.25 3.64002 12.46 3.22002 12.67C3.08002 12.74 2.83502 12.845 2.69502 12.88C2.45002 12.95 2.24002 13.09 2.24002 13.125L2.17002 12.74Z" fill="#ED4C5C"/>
<path d="M10.045 9.34497H11.165V9.97497H10.045V9.34497ZM10.01 13.965H11.165V14.56H10.01V13.965Z" fill="#C8B100"/>
<path d="M11.2703 12.9849C11.3755 13.055 11.4456 13.1251 11.4456 13.1602C11.4456 13.1952 11.4105 13.2303 11.3404 13.2653C11.2703 13.3354 11.2002 13.4406 11.2352 13.4757C11.1651 13.4056 11.1301 13.3354 11.1301 13.2653C11.1301 13.1251 11.2002 13.0199 11.2703 12.9849Z" fill="#ED4C5C"/>
<path d="M10.185 9.9751H10.99V13.9651H10.185V9.9751Z" fill="white"/>
<path d="M9.34497 11.4451C9.51997 11.3751 9.83497 11.3051 10.185 11.3051C10.29 11.3051 10.43 11.3051 10.57 11.3401C11.06 11.4101 11.445 11.6201 11.41 11.7601L11.585 11.3401C11.62 11.1651 11.2 10.9551 10.675 10.8501H10.185C9.83497 10.8501 9.51997 10.8851 9.34497 10.9551V11.4451Z" fill="#ED4C5C"/>
<path d="M10.99 11.97C11.2 11.97 11.375 11.9 11.375 11.795C11.375 11.725 11.305 11.62 11.165 11.55H10.955L10.99 11.97ZM10.185 11.655C10.045 11.69 9.93998 11.725 9.86998 11.76C9.83498 11.795 9.97498 11.935 10.185 12.04V11.655Z" fill="#ED4C5C"/>
<path d="M11.515 12.7397C11.55 12.6697 11.305 12.5297 10.99 12.4247C10.85 12.3897 10.745 12.3197 10.57 12.2497C10.15 12.0747 9.79999 11.8297 9.86999 11.7597L9.79999 12.1797C9.76499 12.2497 10.045 12.4597 10.465 12.6697C10.605 12.7397 10.85 12.8447 10.99 12.8797C11.235 12.9497 11.445 13.1247 11.41 13.1597L11.515 12.7397ZM6.82499 7.10474C7.48999 7.10474 8.85499 7.24474 9.34499 7.73474C8.81999 8.99474 7.97999 8.46974 6.82499 8.46974C5.70499 8.46974 4.82999 8.99474 4.30499 7.73474C4.79499 7.24474 6.12499 7.10474 6.82499 7.10474Z" fill="#ED4C5C"/>
<path d="M8.54002 8.5051C8.12002 8.2601 7.49002 8.2251 6.82502 8.2251C6.16002 8.2251 5.53002 8.2951 5.11002 8.5051L5.25002 9.1001C5.63502 9.2051 6.19502 9.2751 6.82502 9.2751C7.45502 9.2751 7.98002 9.2051 8.40002 9.1001L8.54002 8.5051ZM9.13502 7.0001C8.99502 6.8951 8.71502 6.7901 8.47002 6.7901C8.36502 6.7901 8.26002 6.7901 8.15502 6.8251C8.15502 6.8251 7.94502 6.5451 7.45502 6.5451C7.28002 6.5451 7.14002 6.5801 7.00002 6.6501V6.6151C6.96502 6.5451 6.89502 6.4751 6.82502 6.4751C6.75502 6.4751 6.65002 6.5801 6.65002 6.6501V6.6851C6.51002 6.6151 6.37002 6.5801 6.19502 6.5801C5.70502 6.5801 5.49502 6.8951 5.49502 6.8601C5.39002 6.8251 5.28502 6.8251 5.18002 6.8251C3.57002 6.8251 4.37502 7.9101 4.37502 7.9101L4.55002 7.7001C4.16502 7.2101 4.51502 6.9301 5.21502 6.9301C5.32002 6.9301 5.39002 6.9301 5.46002 6.9651C5.21502 7.3151 5.67002 7.6301 5.67002 7.6301L5.77502 7.4551C5.53002 7.2801 5.49502 6.6851 6.19502 6.6851C6.37002 6.6851 6.51002 6.7201 6.65002 6.8251C6.65002 6.8601 6.61502 7.3501 6.58002 7.4201L6.86002 7.6651L7.14002 7.4201C7.10502 7.3151 7.07002 6.8601 7.07002 6.8251C7.17502 6.7551 7.35002 6.6851 7.52502 6.6851C8.26002 6.6851 8.26002 7.2801 7.94502 7.4551L8.05002 7.6301C8.05002 7.6301 8.43502 7.3151 8.26002 6.9651C8.33002 6.9651 8.43502 6.9301 8.50502 6.9301C9.34502 6.9301 9.38002 7.5601 9.17002 7.7001L9.31002 7.9101C9.24002 7.9101 9.62502 7.4201 9.13502 7.0001Z" fill="#C8B100"/>
<path d="M6.61499 6.33535C6.61499 6.23018 6.72017 6.125 6.82534 6.125C6.96557 6.125 7.03569 6.23018 7.03569 6.33535C7.03569 6.44053 6.93052 6.5457 6.82534 6.5457C6.72017 6.5457 6.61499 6.44053 6.61499 6.33535Z" fill="#005BBF"/>
<path d="M6.75499 5.74023V5.84523H6.64999V5.95023H6.75499V6.30023H6.61499V6.40523H7.03499L7.06999 6.33523L7.03499 6.30023H6.89499V5.95023H6.99999V5.84523H6.89499V5.74023H6.75499Z" fill="#C8B100"/>
<path d="M6.82501 9.20474C6.26501 9.20474 5.77501 9.13474 5.39001 9.02974C5.77501 8.92474 6.26501 8.85474 6.82501 8.85474C7.38501 8.85474 7.87501 8.92474 8.26001 9.02974C7.91001 9.13474 7.38501 9.20474 6.82501 9.20474Z" fill="#ED4C5C"/>
<path d="M6.85997 15.2598C6.19497 15.2598 5.56497 15.0848 5.00497 14.8398C4.58497 14.6298 4.33997 14.2448 4.33997 13.7898V12.1098H9.37997V13.7898C9.37997 14.2448 9.09997 14.6648 8.71497 14.8398C8.15497 15.1198 7.52497 15.2598 6.85997 15.2598ZM6.82497 9.30981H9.34497V12.1098H6.82497V9.30981Z" fill="white"/>
<path d="M6.85997 13.7899C6.85997 14.4549 6.29997 14.9799 5.59997 14.9799C4.89997 14.9799 4.33997 14.4549 4.33997 13.7899V12.1099H6.85997V13.7899Z" fill="#ED4C5C"/>
<path d="M4.86499 14.7703C4.93499 14.8053 5.03999 14.8753 5.17999 14.9103V12.0403H4.89999L4.86499 14.7703ZM4.30499 13.7553C4.30499 14.1053 4.44499 14.3853 4.58499 14.5253V12.0403H4.30499V13.7553Z" fill="#C8B100"/>
<path d="M5.42505 14.9803H5.70505V12.0403H5.42505V14.9803Z" fill="#C7B500"/>
<path d="M5.98499 14.9103C6.08999 14.8753 6.22999 14.8053 6.29999 14.7703V12.0403H6.01999L5.98499 14.9103Z" fill="#C8B100"/>
<path d="M4.30499 9.30981H6.82499V12.1098H4.30499V9.30981Z" fill="#ED4C5C"/>
<path d="M6.58002 14.525C6.72002 14.42 6.82502 14.175 6.86002 13.895V12.075H6.58002V14.525Z" fill="#C8B100"/>
<path d="M9.37998 12.11V13.79C9.37998 14.455 8.81998 14.98 8.11998 14.98C7.41998 14.98 6.85998 14.455 6.85998 13.79V12.11H9.37998ZM8.46998 9.80001C8.57498 10.01 8.57498 10.535 8.25998 10.43C8.32998 10.465 8.36498 10.71 8.46998 10.85C8.64498 11.06 8.85498 10.885 8.81998 10.64C8.74998 10.255 8.78498 10.01 8.85498 9.62501C8.85498 9.66001 9.02998 9.66001 9.09998 9.59001C9.06498 9.69501 9.02998 9.83501 9.09998 9.83501C9.02998 9.94001 8.85498 10.115 8.81998 10.22C8.78498 10.465 9.16998 10.92 8.74998 11.025C8.46998 11.095 8.64498 11.305 8.74998 11.41C8.74998 11.41 8.60998 11.865 8.67998 11.83C8.39998 11.935 8.46998 11.69 8.46998 11.69C8.60998 11.27 8.22498 11.235 8.25998 11.165C7.90998 11.13 8.29498 11.48 7.97998 11.48C7.90998 11.48 7.76998 11.55 7.76998 11.55C7.38498 11.515 7.59498 11.165 7.73498 11.2C7.83998 11.235 7.94498 11.41 7.94498 11.165C7.94498 11.165 7.76998 10.885 8.22498 10.885C8.04998 10.885 7.94498 10.745 7.87498 10.57C7.80498 10.605 7.69998 10.78 7.31498 10.815C7.31498 10.815 7.20998 10.43 7.31498 10.5C7.45498 10.57 7.52498 10.57 7.66498 10.43C7.59498 10.325 7.17498 10.185 7.24498 9.94001C7.24498 9.87001 7.45498 9.76501 7.45498 9.76501C7.41998 9.94001 7.52498 10.115 7.73498 10.115C8.01498 10.15 7.90998 10.045 7.94498 9.97501C7.97998 9.90501 8.18998 10.01 8.11998 9.83501C8.11998 9.80001 7.87498 9.76501 7.94498 9.66001C8.08498 9.48501 8.29498 9.62501 8.46998 9.80001ZM6.85998 14.91L6.78998 14.735L6.85998 14.525L6.92998 14.735L6.85998 14.91Z" fill="#ED4C5C"/>
<path d="M5.07499 9.905V10.08H5.14499V10.22H4.96999V10.57H5.07499V11.34H4.86499V11.725H6.29999V11.34H6.12499V10.57H6.19499V10.22H6.01999V10.08H6.12499V9.905H5.77499V10.08H5.84499V10.22H5.66999V9.8H5.77499V9.625H5.38999V9.8H5.49499V10.22H5.31999V10.08H5.38999V9.905H5.07499ZM9.02999 14.21V12.46H7.20999V14.21L8.04999 14.595H8.15499L9.02999 14.21ZM8.04999 12.6V13.195L7.45499 12.6H8.04999ZM7.31499 12.635L8.01499 13.335L7.31499 14.035V12.635ZM7.38499 14.175L8.04999 13.51V14.49L7.38499 14.175ZM8.15499 14.455V13.475L8.81999 14.14L8.15499 14.455ZM8.88999 14.035L8.18999 13.335L8.88999 12.635V14.035ZM8.15499 12.6H8.74999L8.15499 13.195V12.6Z" fill="#C8B100"/>
<path d="M6.01996 12.0753C6.01996 11.5503 6.36996 11.1653 6.82496 11.1653C7.27996 11.1653 7.62996 11.5853 7.62996 12.0753C7.62996 12.5653 7.27996 12.9853 6.82496 12.9853C6.36996 12.9853 6.01996 12.6003 6.01996 12.0753Z" fill="#ED4C5C"/>
<path d="M6.26501 12.0749C6.26501 11.6899 6.51001 11.4099 6.82501 11.4099C7.14001 11.4099 7.38501 11.7249 7.38501 12.0749C7.38501 12.4599 7.14001 12.7399 6.82501 12.7399C6.54501 12.7749 6.26501 12.4599 6.26501 12.0749Z" fill="#005BBF"/>
<path d="M6.58 11.6201L6.44 12.0051L6.545 12.0401L6.475 12.1801H6.685L6.615 12.0401L6.72 12.0051L6.58 11.6201ZM7.105 11.6201L6.965 12.0051L7.07 12.0401L7 12.1801H7.21L7.175 12.0401L7.28 12.0051L7.105 11.6201ZM6.86 12.0751L6.685 12.4601L6.79 12.4951L6.755 12.6351H6.93L6.895 12.4951L7 12.4601L6.86 12.0751Z" fill="#C8B100"/>
</g>
</g>
<defs>
<clipPath id="clip0_7_439">
<rect width="21" height="21" fill="white"/>
</clipPath>
<clipPath id="clip1_7_439">
<rect width="21" height="21" fill="white"/>
</clipPath>
</defs>
</svg>
