<svg width="21" height="21" viewBox="0 0 21 21" fill="none" xmlns="http://www.w3.org/2000/svg">
<circle cx="10.5" cy="10.5" r="10.5" fill="white"/>
<path fill-rule="evenodd" clip-rule="evenodd" d="M19.4484 5.01753H10.0279V2.27563H17.0276C17.9888 3.04087 18.8082 3.96892 19.4484 5.01753ZM21 10.5001H10.0337V7.75901H20.6386C20.8793 8.6528 21.0008 9.57446 21 10.5001ZM10.5 21.0001C12.8739 21.0055 15.1786 20.2011 17.0334 18.7196H3.96705C5.82159 20.2013 8.12625 21.0058 10.5 21.0001ZM19.4599 15.9839H1.54016C1.0175 15.1315 0.620619 14.2081 0.361786 13.2424H20.6382C20.3795 14.2082 19.9826 15.1315 19.4599 15.9839Z" fill="#D80027"/>
<path fill-rule="evenodd" clip-rule="evenodd" d="M4.8747 1.63407H4.86527V1.64063L4.8747 1.63407ZM4.8747 1.63407H5.82421L4.92966 2.27596L5.26804 3.32596L4.37554 2.68407L3.48878 3.32596L3.78041 2.41993C2.99663 3.07591 2.31281 3.84278 1.75054 4.69629H2.0598L1.49379 5.10645L1.23703 5.55762L1.50527 6.39187L0.997909 6.02273L0.648046 6.8373L0.939667 7.75195H2.04709L1.16689 8.40041L1.50527 9.4504L0.612773 8.80851L0.0877738 9.19324C0.0291881 9.62636 -0.000136136 10.0629 4.75105e-07 10.5H10.5V8.84397e-06C8.50747 -0.00258257 6.55573 0.56437 4.8747 1.63407ZM5.26599 9.44507L5.27378 9.45122H5.26804L5.26599 9.44507ZM4.92925 8.40082L5.26599 9.44507L4.37513 8.80933L3.48263 9.45122L3.82101 8.40123L2.92851 7.75933H4.03593L4.37431 6.70933L4.71269 7.75933H5.82011L4.92925 8.40082ZM4.9354 5.34434L5.27378 6.39433L4.38128 5.75244L3.48878 6.39433L3.82716 5.34434L2.93466 4.70244H4.04208L4.38046 3.65244L4.71884 4.70244H5.82626L4.9354 5.34434ZM8.14938 8.80933L9.04188 9.45122L8.7035 8.40123L9.59764 7.75933H8.49022L8.15184 6.70933L7.81347 7.75933H6.70605L7.59854 8.40123L7.26017 9.45122L8.14938 8.80933ZM8.7035 5.34434L9.04188 6.39433L8.14938 5.75244L7.25688 6.39433L7.59526 5.34434L6.70276 4.70244H7.81018L8.14856 3.65244L8.48694 4.70244H9.59436L8.7035 5.34434ZM9.04188 3.33745L8.7035 2.28745L9.59764 1.64555H8.49022L8.15184 0.595555L7.81347 1.64555H6.70605L7.59854 2.28745L7.26017 3.33745L8.15267 2.69555L9.04188 3.33745Z" fill="#0052B4"/>
</svg>
