<svg width="30" height="30" viewBox="0 0 30 30" fill="none" xmlns="http://www.w3.org/2000/svg">
<circle cx="15" cy="15" r="15" fill="url(#paint0_linear_1235_25826)"/>
<path fill-rule="evenodd" clip-rule="evenodd" d="M17.6744 14.2763C17.6744 14.9562 17.4043 15.6083 16.9235 16.0891C16.4427 16.5699 15.7906 16.84 15.1106 16.84C14.4307 16.84 13.7786 16.5699 13.2978 16.0891C12.817 15.6083 12.5469 14.9562 12.5469 14.2763C12.5469 13.5963 12.817 12.9442 13.2978 12.4634C13.7786 11.9826 14.4307 11.7125 15.1106 11.7125C15.7906 11.7125 16.4427 11.9826 16.9235 12.4634C17.4043 12.9442 17.6744 13.5963 17.6744 14.2763ZM16.3925 14.2763C16.3925 14.6162 16.2574 14.9423 16.017 15.1827C15.7766 15.4231 15.4506 15.5581 15.1106 15.5581C14.7706 15.5581 14.4446 15.4231 14.2042 15.1827C13.9638 14.9423 13.8287 14.6162 13.8287 14.2763C13.8287 13.9363 13.9638 13.6102 14.2042 13.3698C14.4446 13.1294 14.7706 12.9944 15.1106 12.9944C15.4506 12.9944 15.7766 13.1294 16.017 13.3698C16.2574 13.6102 16.3925 13.9363 16.3925 14.2763Z" fill="white"/>
<path fill-rule="evenodd" clip-rule="evenodd" d="M10.9587 18.2795C10.1325 17.4928 9.55805 16.4787 9.3081 15.3655C9.05816 14.2524 9.14392 13.0901 9.55455 12.0256C9.96517 10.9612 10.6822 10.0424 11.615 9.38554C12.5478 8.72863 13.6544 8.36307 14.795 8.33511C15.9355 8.30714 17.0588 8.61801 18.0226 9.22842C18.9865 9.83882 19.7477 10.7213 20.21 11.7644C20.6723 12.8074 20.8149 13.9641 20.6199 15.0882C20.4248 16.2123 19.9007 17.2532 19.114 18.0795L15.1364 22.2571L10.9587 18.2795ZM18.1859 17.1957L15.0921 20.4452L11.8426 17.3514C11.2 16.7395 10.7532 15.9508 10.5588 15.085C10.3644 14.2193 10.4311 13.3153 10.7505 12.4874C11.0699 11.6595 11.6276 10.9449 12.353 10.434C13.0785 9.92308 13.9392 9.63875 14.8263 9.61697C15.7133 9.59519 16.587 9.83694 17.3366 10.3117C18.0863 10.7864 18.6784 11.4727 19.038 12.2839C19.3976 13.0951 19.5086 13.9947 19.3569 14.869C19.2053 15.7433 18.7978 16.553 18.1859 17.1957Z" fill="white"/>
<defs>
<linearGradient id="paint0_linear_1235_25826" x1="25.3592" y1="14.8537" x2="10.8634" y2="14.8537" gradientUnits="userSpaceOnUse">
<stop stop-color="#997149"/>
<stop offset="1" stop-color="#D4A577"/>
</linearGradient>
</defs>
</svg>
