<svg width="18" height="18" viewBox="0 0 18 18" fill="none" xmlns="http://www.w3.org/2000/svg">
<g id="Line_Expand">
<g id="Group">
<path id="Vector" d="M9 0C4.03875 0 0 4.03875 0 9C0 13.9613 4.03875 18 9 18C13.9613 18 18 13.9613 18 9C18 4.03875 13.9613 0 9 0ZM9 16.875C4.6575 16.875 1.125 13.3425 1.125 9C1.125 4.6575 4.6575 1.125 9 1.125C13.3425 1.125 16.875 4.6575 16.875 9C16.875 13.3425 13.3425 16.875 9 16.875Z" fill="#2F313C"/>
<path id="Vector_2" d="M15.0244 8.60063L12.7744 6.35063C12.555 6.13125 12.2006 6.13125 11.9812 6.35063C11.7619 6.57 11.7619 6.92438 11.9812 7.14375L13.2694 8.4375H3.375C3.06562 8.4375 2.8125 8.69063 2.8125 9C2.8125 9.30938 3.06562 9.5625 3.375 9.5625H13.2694L11.9812 10.8506C11.7619 11.07 11.7619 11.4244 11.9812 11.6438C12.0881 11.7563 12.2288 11.8125 12.375 11.8125C12.5212 11.8125 12.6619 11.7563 12.7744 11.6494L15.0244 9.39938C15.2437 9.18 15.2437 8.82 15.0244 8.60063Z" fill="#2F313C"/>
</g>
</g>
</svg>
